<?xml version="1.0" encoding="UTF-8" standalone="no"?>
<svg
   xmlns:dc="http://purl.org/dc/elements/1.1/"
   xmlns:cc="http://creativecommons.org/ns#"
   xmlns:rdf="http://www.w3.org/1999/02/22-rdf-syntax-ns#"
   xmlns:svg="http://www.w3.org/2000/svg"
   xmlns="http://www.w3.org/2000/svg"
   version="1.1"
   id="svg2"
   viewBox="0 0 176.24917 187.39278"
   height="52.886406mm"
   width="49.741432mm">
  <defs
     id="defs4" />
  <metadata
     id="metadata7">
    <rdf:RDF>
      <cc:Work
         rdf:about="">
        <dc:format>image/svg+xml</dc:format>
        <dc:type
           rdf:resource="http://purl.org/dc/dcmitype/StillImage" />
        <dc:title></dc:title>
      </cc:Work>
    </rdf:RDF>
  </metadata>
  <g
     transform="translate(-285.38321,-192.95265)"
     id="layer1">
    <g
       transform="translate(-5.3676567,21.995671)"
       id="g3417">
      <path
         id="path3431"
         d="m 365.00003,357.15828 c -3.575,-0.80379 -10.325,-3.34006 -15,-5.63616 -6.80277,-3.34115 -10.21091,-5.89188 -17.0685,-12.77447 -13.90992,-13.96062 -18.94044,-25.36871 -19.69088,-44.65449 -0.39845,-10.23998 -0.14277,-13.24408 1.69832,-19.95493 3.37595,-12.30544 8.35848,-20.83578 17.53643,-30.02326 13.48683,-13.50082 28.21834,-19.71149 47.02463,-19.82517 12.40251,-0.075 18.42843,1.32033 30.35796,7.02937 7.6401,3.65627 10.76083,5.88734 17,12.15357 13.32489,13.38267 19.12751,26.29162 19.92142,44.31873 0.92062,20.90387 -5.08553,36.42816 -19.67883,50.8645 -9.07033,8.97278 -15.82638,13.20802 -27.10055,16.98882 -8.51238,2.85464 -25.72455,3.59893 -35,1.51349 z m 24.51067,-59.07455 c 13.74413,-11.31031 26.029,-21.58521 27.29971,-22.83311 l 2.31039,-2.26892 -3.69021,-4.41689 c -2.02961,-2.42929 -4.06058,-4.41689 -4.51327,-4.41689 -0.45268,0 -9.25196,6.975 -19.55395,15.5 -23.13085,19.14101 -24.61392,20.22481 -26.62144,19.45445 -0.88388,-0.33917 -4.36808,-3.95459 -7.74266,-8.03426 -6.73974,-8.14793 -6.4022,-8.08214 -12.98192,-2.53044 -3.22704,2.72284 -3.36819,3.0733 -1.92289,4.7744 0.85789,1.00972 5.94853,7.12335 11.31253,13.58585 5.364,6.4625 10.05911,11.75 10.43356,11.75 0.37445,0 11.92602,-9.25389 25.67015,-20.56419 z M 297.66387,229.9969 c -7.70003,-15.43809 -7.78009,-15.67717 -5.88467,-17.5726 1.89542,-1.89542 2.13789,-1.84126 17.8212,3.9804 14.52844,5.39298 15.89963,6.11073 15.89963,8.3226 0,2.11829 -0.43714,2.40846 -3.5,2.3233 -1.925,-0.0535 -4.85,-0.38092 -6.5,-0.72753 -2.58004,-0.54199 -3.40146,-0.1403 -5.86788,2.86951 l -2.86788,3.49973 2.03435,4.69963 c 1.44496,3.33809 1.75863,5.21479 1.08269,6.47781 -2.28653,4.27242 -4.31725,1.96655 -12.21744,-13.87285 z m 8.33616,-7.36302 c 0,-0.80892 -4.97664,-2.34265 -5.595,-1.7243 -0.19745,0.19745 0.34619,1.36581 1.2081,2.59634 1.24242,1.77381 1.85919,1.99492 2.97699,1.06723 0.77545,-0.64357 1.40991,-1.51624 1.40991,-1.93927 z m 140.61488,17.92574 c -9.54718,-7.50981 -6.1819,-21.38093 6.01243,-24.78219 6.92024,-1.93021 14.37269,3.7063 14.37269,10.87049 0,4.36808 -3.94873,10 -7.01135,10 -1.00845,0 -3.90563,-2.3625 -6.43816,-5.25 -3.74421,-4.26902 -4.78354,-4.96972 -5.56223,-3.75 -1.64717,2.58007 -1.11105,4.03527 2.97825,8.08391 4.24035,4.19818 4.46095,6.91609 0.56136,6.91609 -1.24198,0 -3.45283,-0.93973 -4.91299,-2.0883 z m 13.7844,-13.74873 c 0.75465,-1.22105 -2.26574,-5.16297 -3.95598,-5.16297 -1.92496,0 -1.82763,1.91784 0.21169,4.17126 1.80228,1.9915 2.94013,2.29287 3.74429,0.99171 z m -28.14928,-0.82964 c -3.00496,-1.20198 -0.85264,-5.55148 8.75446,-17.69134 5.50246,-6.9531 10.62236,-12.64199 11.37756,-12.64199 2.52983,0 4.03036,2.8212 2.80811,5.27961 -1.54707,3.11176 -19.47297,25.05759 -20.69013,25.32995 -0.55,0.12308 -1.5625,-10e-4 -2.25,-0.27623 z M 320.63278,214.54129 c -7.7266,-5.63533 -9.68064,-7.55038 -9.43833,-9.25 0.54685,-3.83569 4.27936,-3.16518 10.94881,1.96685 l 6.1679,4.74608 -0.70054,-4.42815 c -1.83722,-11.61321 -1.85166,-12.48319 -0.22963,-13.82935 2.98957,-2.48113 4.2781,-0.47927 6.51282,10.11834 1.20551,5.71685 2.43252,11.31463 2.72668,12.4395 0.61633,2.35686 -1.90079,5.34336 -4.50356,5.34336 -0.95714,0 -6.125,-3.19799 -11.48415,-7.10663 z m 97.86686,2.72072 c -1.65021,-0.7192 -3.61781,-2.05159 -4.37244,-2.96086 -0.75463,-0.90928 -2.16881,-1.65323 -3.14263,-1.65323 -3.66024,0 -2.81398,-3.36553 4.53677,-18.04256 7.64223,-15.25898 9.3965,-17.17125 12.41545,-13.53365 0.92672,1.11664 0.74665,2.27645 -0.83471,5.37618 -2.12665,4.16857 -1.9186,5.20003 1.04884,5.20003 0.99966,0 3.28716,1.31368 5.08333,2.91929 2.87789,2.57255 3.25751,3.50377 3.19613,7.84016 -0.0825,5.82797 -3.18253,11.50857 -7.82558,14.33983 -3.61522,2.20451 -5.95463,2.32369 -10.10516,0.51481 z m 9.21809,-9.51197 c 3.83562,-5.71046 2.60268,-10.10212 -2.83614,-10.10212 -4.76727,0 -8.95139,9.53017 -5.63858,12.84298 2.14553,2.14553 6.03823,0.88657 8.47472,-2.74086 z m -85.74339,3.37054 c -2.91415,-3.10198 -3.16263,-8.5021 -0.5253,-11.41632 1.01696,-1.12372 3.58196,-2.8077 5.7,-3.74218 2.11804,-0.93448 3.85099,-2.07658 3.85099,-2.53799 0,-1.83445 -3.4398,-1.99413 -6.57583,-0.30527 -6.55871,3.5321 -9.20025,-1.59207 -2.84539,-5.51959 4.41998,-2.7317 10.5492,-3.05046 13.16345,-0.68459 2.35263,2.1291 7.54221,16.69378 7.08888,19.8951 -0.22278,1.57319 -1.10487,2.44766 -2.69608,2.6728 -1.30074,0.18404 -3.77574,1.19485 -5.5,2.24626 -4.42235,2.69661 -8.76898,2.46989 -11.66072,-0.60822 z m 10.42728,-6.63563 c 2.71075,-3.87013 -0.40863,-5.27142 -4.44992,-1.99898 -1.286,1.04134 -1.95862,2.34169 -1.55176,3 1.15741,1.87272 4.36337,1.338 6.00168,-1.00102 z m 42.75644,4.273 c -7.2745,-0.70997 -10.18023,-3.14067 -10.12623,-8.47081 0.0585,-5.77175 4.43435,-8.9461 11.71508,-8.49837 2.94779,0.18128 4.75758,-0.15422 5.01613,-0.92987 0.4271,-1.28132 -3.69339,-3.31272 -5.06985,-2.49942 -0.44375,0.2622 -1.90625,0.20079 -3.25,-0.13647 -1.75431,-0.44031 -2.44316,-1.29992 -2.44316,-3.04883 0,-5.55505 14.05621,-4.00265 16.86062,1.86212 1.20122,2.51208 1.13742,4.14057 -0.48973,12.5 -2.10932,10.83656 -1.37185,10.27971 -12.21286,9.22165 z m 3.64197,-7.31003 c 2.24834,-2.24834 1.33327,-3.8 -2.24098,-3.8 -3.67341,0 -5.08168,1.19559 -4.17902,3.54789 0.67402,1.75645 4.75539,1.91672 6.42,0.25211 z m -32.07013,5.78701 c -1.5679,-1.56789 -4.38221,-21.44467 -3.39906,-24.00672 0.81382,-2.12076 4.37438,-2.01111 5.51052,0.16971 0.50143,0.9625 1.46846,6.3672 2.14895,12.01044 0.98248,8.14747 0.98269,10.5672 10e-4,11.75 -1.54133,1.8572 -2.46425,1.87378 -4.26146,0.0766 z m 9.85607,-0.44796 c -0.29265,-0.47352 -0.83451,-8.23922 -1.20413,-17.25712 -0.58751,-14.33415 -0.47117,-16.56288 0.92509,-17.72167 0.87842,-0.72902 2.45521,-1.05315 3.50399,-0.72028 1.74263,0.55309 1.9524,2.00284 2.43547,16.83262 0.29757,9.13479 0.12533,16.99228 -0.39406,17.9774 -0.959,1.81891 -4.33902,2.38952 -5.26636,0.88905 z M 362.6667,179.98125 c -1.26652,-1.26651 -0.66226,-6.12104 0.83333,-6.69496 3.55115,-1.3627 6.85864,3.01964 4.46017,5.90962 -1.25408,1.51107 -4.13967,1.93918 -5.2935,0.78534 z"
         style="fill:#cce6d7" />
      <path
         id="path3429"
         d="m 363.72359,356.08178 c -15.28239,-3.7026 -32.84011,-16.79037 -40.99915,-30.56135 -23.24975,-39.24137 -1.0731,-89.74838 43.65615,-99.42628 33.95288,-7.34626 69.0664,14.45958 78.18522,48.55377 2.30325,8.61159 2.33203,24.3489 0.0603,33 -6.05186,23.04684 -26.29301,43.17376 -48.74016,48.46511 -7.91607,1.86601 -24.3976,1.85 -32.1624,-0.0312 z m 34.21171,-5.55557 c 13.51943,-4.37863 28.05525,-15.90993 35.05347,-27.80801 5.96401,-10.13977 8.50141,-19.62518 8.44522,-31.57028 -0.0541,-11.50647 -1.78145,-18.44452 -7.21997,-29 -5.05858,-9.81806 -16.29687,-20.84712 -26.21399,-25.72593 -24.67096,-12.13708 -51.87981,-7.8464 -71.07293,11.20781 -8.34047,8.2801 -11.76846,13.73907 -15.71029,25.01812 -2.24959,6.43692 -2.61797,9.13006 -2.59892,19 0.019,9.8187 0.40366,12.57232 2.63138,18.8346 8.45869,23.77795 28.66777,40.02618 52.25076,42.00994 8.56294,0.7203 18.64524,-0.091 24.43527,-1.96625 z m -30.86326,-0.43129 c -11.5447,-2.50364 -20.4274,-7.53528 -29.51587,-16.71941 -8.75282,-8.84494 -13.19153,-16.39091 -16.01272,-27.22221 -1.95561,-7.50808 -1.95838,-21.1196 -0.006,-29.40227 4.69126,-19.9018 21.79244,-37.45183 42.39406,-43.50676 7.0539,-2.07318 23.67998,-2.10903 31.5162,-0.068 25.87028,6.73835 44.58688,31.08377 44.53752,57.93171 -0.0312,16.98281 -5.69538,30.49525 -17.86996,42.63066 -14.92798,14.87996 -34.7247,20.76261 -55.04325,16.35624 z m 24.91492,-53.23079 c 14.85719,-12.25609 27.01307,-22.89493 27.01307,-23.64187 0,-2.02167 -6.26842,-9.46645 -8,-9.50132 -0.825,-0.0166 -10.95,7.81558 -22.5,17.40488 -11.55,9.58929 -21.75859,17.45466 -22.68576,17.47859 -0.92718,0.0239 -4.44358,-3.33149 -7.81424,-7.45649 -3.37066,-4.125 -6.88707,-7.49439 -7.81424,-7.48753 -0.92717,0.007 -3.64516,1.8321 -6.03998,4.0561 -3.89834,3.62029 -4.20403,4.22098 -2.91973,5.73753 0.78896,0.93165 6.0537,7.22962 11.69942,13.9955 5.64572,6.76588 10.66621,12.16588 11.15666,12 0.49045,-0.16588 13.0476,-10.32931 27.9048,-22.58539 z M 304.6096,242.39792 c -0.79009,-1.2375 -4.27706,-7.98234 -7.74881,-14.98853 -5.92204,-11.951 -6.20798,-12.84282 -4.62518,-14.42562 1.5828,-1.5828 2.64773,-1.32922 17.22576,4.10187 12.63855,4.70853 15.53866,6.14695 15.53866,7.70701 0,2.75177 -1.96445,3.13192 -7.00124,1.35483 l -4.4122,-1.55671 -3.98474,3.98475 -3.98475,3.98474 2.31415,4.94081 c 1.27278,2.71745 2.00739,5.43717 1.63245,6.04383 -1.11064,1.79705 -3.41509,1.26352 -4.9541,-1.14698 z m 0.99838,-17.5 c 1.84032,-2.42432 1.74295,-2.76909 -1.155,-4.08949 -4.73382,-2.15687 -5.6294,-1.59838 -3.75156,2.33949 1.86943,3.92023 2.96303,4.31028 4.90656,1.75 z m 140.9392,14.65726 c -7.11496,-6.24703 -6.69837,-14.63919 1.0189,-20.52544 5.23291,-3.99133 11.12862,-4.00659 15.26936,-0.0395 1.6317,1.56327 3.19533,4.03816 3.47473,5.49975 0.62396,3.26404 -1.27648,7.98608 -4.28941,10.65794 l -2.25531,2 -5.43683,-5.97144 c -4.3436,-4.77071 -5.62395,-5.67557 -6.3674,-4.5 -1.87194,2.95998 -0.97914,6.21836 2.63876,9.63047 2.96029,2.79192 3.38274,3.6569 2.37755,4.86808 -1.71564,2.06723 -2.43835,1.88517 -6.43035,-1.61985 z m 14.45285,-13.38421 c 0,-2.66579 -4.13755,-6.1741 -5.95602,-5.05023 -1.51167,0.93426 -1.30259,1.92869 1.0286,4.89232 2.63498,3.34983 4.92742,3.4233 4.92742,0.15791 z m -28.97236,-1.98975 c -0.82007,-0.98812 -0.94067,-1.97775 -0.33919,-2.7833 9.94604,-13.32047 19.85337,-24.79291 21.19065,-24.53825 3.65528,0.6961 1.84452,4.52355 -7.67154,16.21554 -5.33916,6.56001 -10.20252,12.08749 -10.80747,12.2833 -0.60496,0.19581 -1.67256,-0.33397 -2.37245,-1.17729 z m -110.29418,-9.668 c -6.28253,-4.60514 -9.73346,-7.79603 -9.73346,-9 0,-3.233 4.14371,-2.14374 10.33518,2.71681 3.20936,2.51947 6.10026,4.31578 6.42424,3.99181 0.32397,-0.32398 -0.15855,-4.03404 -1.07227,-8.24459 -1.69559,-7.81348 -1.24064,-10.32933 1.86791,-10.32933 1.54622,0 1.68675,0.43165 4.49427,13.80378 2.06831,9.85128 2.08596,10.38924 0.402,12.25 -0.96872,1.07042 -2.03651,1.94622 -2.37286,1.94622 -0.33636,0 -4.99161,-3.21061 -10.34501,-7.1347 z m 95.62565,1.21201 c -1.72749,-1.05336 -3.44155,-2.40168 -3.80902,-2.99626 -0.36747,-0.59458 -1.54157,-1.08105 -2.60911,-1.08105 -1.06754,0 -1.94098,-0.681 -1.94098,-1.51333 0,-0.83233 3.153,-7.80733 7.00668,-15.5 5.54548,-11.06984 7.42891,-13.98667 9.03138,-13.98667 2.99288,0 3.35682,2.30564 1.07115,6.78593 l -2.03036,3.97984 3.02548,0.6051 c 1.66401,0.3328 4.34627,1.92589 5.96057,3.54019 3.56048,3.56047 3.88601,8.30467 0.963,14.03425 -3.92714,7.69783 -10.27264,10.03216 -16.66879,6.132 z m 8.94776,-4.86391 c 2.94757,-3.25702 4.85071,-9.05045 3.68723,-11.22443 -1.14086,-2.13172 -5.11054,-3.542 -7.44668,-2.64554 -1.78724,0.68583 -5.54742,7.84368 -5.54742,10.56003 0,2.16646 3.48831,5.09654 6.06752,5.09654 0.89238,0 2.35009,-0.80397 3.23935,-1.7866 z m -84.23429,-0.84826 c -3.97858,-5.05794 -1.52358,-10.76717 5.9087,-13.74097 4.36416,-1.7462 4.85751,-2.68315 2.46033,-4.67263 -1.29405,-1.07396 -2.29422,-0.93584 -5.89657,0.81432 -4.56374,2.21723 -5.54504,2.0558 -5.54504,-0.9122 0,-2.14029 6.66443,-5.85366 10.50562,-5.85366 3.96806,0 6.94033,3.82952 9.92259,12.78443 2.85404,8.56991 2.76069,10.21557 -0.5795,10.21557 -1.11829,0 -3.17742,0.9 -4.57584,2 -3.79706,2.98677 -9.58857,2.6854 -12.20029,-0.63486 z m 10.09868,-4.02013 c 2.40879,-2.17992 2.44243,-6.34501 0.0512,-6.34501 -2.60716,0 -6.22251,2.84117 -6.22251,4.89004 0,3.48004 3.12061,4.21577 6.17126,1.45497 z m 49.41104,2.90499 c -0.41307,-0.4125 -2.87972,-0.75613 -5.48144,-0.76362 -6.82949,-0.0197 -10.10086,-2.43913 -10.10086,-7.47048 0,-5.76376 2.81574,-8.0159 10.02189,-8.0159 6.40363,0 7.32288,-0.48727 5.90774,-3.13148 -0.74169,-1.38586 -2.12567,-1.86852 -5.35782,-1.86852 -4.51691,0 -6.43728,-1.73453 -4.29367,-3.87815 1.60895,-1.60894 8.3165,-1.38283 11.75703,0.39634 3.86263,1.99744 4.48765,5.03274 2.94672,14.31012 -1.66962,10.05216 -3.06763,12.75044 -5.39959,10.42169 z m -2.41104,-6.90499 c 2.55059,-2.30825 2.2804,-4.01484 -0.7563,-4.777 -3.25539,-0.81705 -6.05049,0.0398 -6.83983,2.0968 -1.45579,3.79374 4.17165,5.77931 7.59613,2.6802 z m -32.68052,4.4789 c -1.06894,-2.81232 -3.09864,-21.84031 -2.44286,-22.90137 0.38047,-0.61563 1.53726,-0.9565 2.57063,-0.75749 1.51654,0.29206 2.12131,1.90201 3.13605,8.34839 1.64451,10.44717 1.30982,15.86225 -1.00758,16.30184 -0.96417,0.18289 -1.97947,-0.26323 -2.25624,-0.99137 z m 10.13654,-1.35282 c -0.34501,-0.89907 -0.62728,-8.58698 -0.62728,-17.08426 0,-13.10499 0.23784,-15.54087 1.56722,-16.051 3.19874,-1.22747 3.75411,1.35507 3.84408,17.87546 0.0864,15.87323 0.0345,16.29643 -2.03402,16.59158 -1.25203,0.17864 -2.38002,-0.36763 -2.75,-1.33178 z m -14.03675,-27.09576 c -0.37055,-0.96565 -0.0633,-2.33112 0.69518,-3.08962 1.9124,-1.91239 4.89163,-0.53293 4.51716,2.09157 -0.38363,2.68876 -4.27744,3.43434 -5.21234,0.99805 z"
         style="fill:#b6dcc6" />
      <path
         id="path3427"
         d="m 368.06872,356.62568 c -20.20197,-4.2643 -37.52009,-16.8902 -46.43369,-33.8528 -5.93346,-11.2914 -7.9463,-20.55606 -7.40354,-34.07689 0.3349,-8.3429 1.07976,-13.35215 2.68368,-18.04807 6.5615,-19.2106 21.67077,-34.74216 40.41707,-41.5467 34.87933,-12.66052 73.30905,5.80118 85.41444,41.03323 2.47938,7.21609 2.7512,9.35678 2.73178,21.51347 -0.0193,12.07547 -0.302,14.27395 -2.67921,20.8346 -9.71902,26.82268 -32.55561,43.76286 -60.29922,44.72996 -5.5,0.19172 -11.99409,-0.0723 -14.43131,-0.5868 z m 24.43131,-4.47711 c 17.67356,-3.69788 35.10572,-16.95462 42.73726,-32.50065 5.35834,-10.91537 7.08737,-19.36281 6.44744,-31.5 -1.0658,-20.21438 -10.64409,-37.30859 -27.05528,-48.28506 -27.22371,-18.20833 -65.19271,-12.0119 -84.08324,13.72215 -11.53537,15.71431 -15.32451,34.87983 -10.57074,53.4669 8.1189,31.74457 40.40095,51.81795 72.52456,45.09666 z m -19.72823,-1.63336 c -28.02149,-2.90624 -50.51725,-26.5801 -52.42283,-55.16819 -1.79185,-26.88185 15.01002,-51.98789 40.65106,-60.7425 8.7926,-3.00205 23.17671,-3.70533 32.23384,-1.576 11.50765,2.70544 19.36019,7.16043 28.35974,16.08934 13.08647,12.98375 19.28358,28.70361 18.03746,45.75466 -2.54377,34.80753 -31.93168,59.2652 -66.85927,55.64269 z m 20.15338,-53.91617 c 14.89117,-12.2514 27.07485,-22.70239 27.07485,-23.22442 0,-1.86677 -8.29815,-10.82627 -9.57376,-10.33677 -0.71347,0.27378 -10.22942,7.8804 -21.14656,16.90359 -10.91713,9.02319 -20.81694,16.92364 -21.99956,17.55656 -1.94559,1.04125 -2.70361,0.52471 -7.96517,-5.42778 -3.19822,-3.6182 -6.17481,-7.21839 -6.61464,-8.00042 -1.26211,-2.24407 -2.85556,-1.70445 -8.00839,2.71203 -3.14503,2.69559 -4.60699,4.64504 -4.2267,5.63606 0.31977,0.83329 5.4084,7.31081 11.30808,14.39449 7.45054,8.94576 11.23833,12.75458 12.40185,12.47067 0.92133,-0.22481 13.85883,-10.43261 28.75,-22.68401 z m -94.39923,-66.89936 c -6.68583,-13.34938 -7.32464,-15.11019 -5.97244,-16.46238 1.35219,-1.35219 2.33946,-1.20814 9.23033,1.34678 23.97983,8.89097 24.51863,9.1614 22.42491,11.25512 -0.92172,0.92171 -2.34234,0.89628 -6.27797,-0.11239 -4.99373,-1.27986 -5.13987,-1.25272 -7.99721,1.48478 -3.94452,3.77909 -4.44744,5.9703 -2.4082,10.49252 1.71284,3.79841 1.49193,6.94381 -0.4877,6.94381 -0.56382,0 -4.39409,-6.72671 -8.51172,-14.94824 z m 8.47408,-6.75777 c 0,-1.14155 -5.48257,-4.29399 -7.46788,-4.29399 -1.12586,0 -0.43981,2.63916 1.52293,5.85855 1.97857,3.24536 2.11325,3.29911 3.99626,1.59501 1.07178,-0.96994 1.94869,-2.39175 1.94869,-3.15957 z m 140.58024,17.18983 c -3.34908,-2.53405 -5.56685,-6.85741 -5.57365,-10.8654 -0.006,-3.254 0.6997,-4.58787 4.36183,-8.25 3.92087,-3.92086 4.85082,-4.36842 9.07692,-4.36842 8.93357,0 13.28744,8.00566 8.56562,15.75 -1.08986,1.7875 -2.73994,3.25 -3.66684,3.25 -0.9269,0 -3.85178,-2.3625 -6.49973,-5.25 -4.63101,-5.04995 -4.87219,-5.17603 -6.32943,-3.30887 -2.21114,2.83315 -1.90865,4.11735 1.98504,8.42719 1.925,2.13074 3.5,4.38204 3.5,5.00288 0,1.57557 -3.12021,1.35255 -5.41976,-0.38738 z m 14.41976,-14.67495 c 0,-1.5568 -4.01768,-4.80887 -5.94098,-4.80887 -3.40476,0 -3.38153,2.07204 0.0631,5.62595 3.07165,3.16915 3.451,3.31081 4.61242,1.72247 0.69598,-0.95187 1.26546,-2.09467 1.26546,-2.53955 z m -30,-2.39173 c 0,-1.39536 14.50831,-20.78259 18.65768,-24.93196 1.86362,-1.86363 3.84232,-1.46678 3.84232,0.77061 0,2.5135 -18.70663,25.74421 -20.73064,25.74421 -0.97315,0 -1.76936,-0.71229 -1.76936,-1.58286 z m -110.5,-9.21365 c -4.95,-3.70985 -9,-7.40465 -9,-8.21065 0,-2.95558 3.26825,-1.94249 9.87967,3.06249 3.72454,2.81955 7.02157,4.87676 7.32673,4.5716 0.30517,-0.30517 -0.17893,-3.47605 -1.07577,-7.04641 -2.23282,-8.88886 -2.14696,-11.58052 0.36937,-11.58052 1.1,0 2.0162,0.3375 2.036,0.75 0.0198,0.4125 1.08432,5.52652 2.36559,11.36448 3.58801,16.34828 1.84118,17.38875 -11.90159,7.08901 z m 98,2.85115 c -1.1,-0.45022 -2.85724,-1.77169 -3.90499,-2.93661 -1.04774,-1.16492 -2.70868,-2.11803 -3.69098,-2.11803 -0.9823,0 -2.05624,-0.43726 -2.38653,-0.97168 -0.97474,-1.57717 13.73174,-29.48199 15.7325,-29.85164 2.23551,-0.41303 2.33273,2.79576 0.20913,6.90235 -1.78427,3.45041 -1.23735,4.91187 1.84989,4.94321 3.95294,0.0401 8.69098,5.33678 8.69098,9.71567 0,3.37101 -4.88695,11.76409 -7.87879,13.53142 -3.15798,1.86546 -5.46803,2.07588 -8.62121,0.78531 z m 5.96081,-4.67798 c 1.8905,-0.72545 5.53919,-7.43228 5.53919,-10.18183 0,-1.97601 -2.36028,-4.48897 -5.1352,-5.46739 -3.43034,-1.20952 -8.8648,5.32024 -8.8648,10.65147 0,4.37406 3.97197,6.72028 8.46081,4.99775 z m -81.76625,-0.43756 c -0.99299,-0.60529 -2.25081,-2.27195 -2.79516,-3.70369 -1.54321,-4.05895 0.51497,-7.59881 6.22517,-10.70669 5.06264,-2.75544 5.61058,-4.03715 2.54676,-5.95728 -1.2892,-0.80795 -2.46263,-0.64107 -4.77152,0.67856 -1.68404,0.9625 -3.73342,1.75 -4.55417,1.75 -2.45334,0 -1.08594,-3.24883 2.15763,-5.12637 8.39105,-4.85715 12.03491,-2.76988 16.01189,9.17188 2.77176,8.32286 2.71535,11.64066 -0.17905,10.52997 -0.98654,-0.37857 -2.52972,0.19723 -3.84817,1.43585 -2.61869,2.46013 -8.26547,3.46868 -10.79338,1.92777 z m 10.26473,-7.1629 c 1.34825,-2.41337 1.35181,-2.8926 0.0312,-4.20491 -1.31648,-1.3082 -1.86143,-1.30078 -4.66795,0.0636 -1.7476,0.84957 -3.42098,2.17928 -3.71861,2.95491 -1.91204,4.9827 5.63578,6.05446 8.35536,1.18643 z m 46.67485,3.5246 c -0.38456,-0.38456 -2.6132,-0.5815 -4.95253,-0.43764 -8.08254,0.49704 -12.44024,-6.23395 -7.77046,-12.00238 1.62653,-2.00919 2.8552,-2.37419 8.25,-2.45084 4.6181,-0.0656 6.40637,-0.4728 6.5876,-1.5 0.45651,-2.58761 -1.52409,-4.22307 -5.40525,-4.46333 -5.45445,-0.33766 -5.3435,-0.29764 -5.3435,-1.92756 0,-3.92449 11.0601,-2.65855 14.26394,1.63265 1.8267,2.44667 1.87248,3.11643 0.68253,9.98544 -0.70152,4.04957 -1.64033,8.37536 -2.08623,9.61286 -0.79245,2.19924 -2.82998,2.94693 -4.2261,1.5508 z m -0.21932,-6.48265 c 2.00381,-2.86084 0.44498,-4.81815 -3.83726,-4.81815 -3.52765,0 -5.57756,1.51299 -5.57756,4.11667 0,3.44477 7.12168,3.9754 9.41482,0.70148 z m -33.88919,3.93185 c -0.93914,-2.85215 -2.66338,-19.94864 -2.14748,-21.29307 0.86084,-2.24332 3.52446,-1.72559 4.08023,0.79307 0.70455,3.1929 2.54162,17.52041 2.54162,19.82236 0,2.18474 -3.78915,2.7586 -4.47437,0.67764 z m 11.08146,0.42327 c -0.28102,-0.4547 -0.82079,-7.77214 -1.19949,-16.26097 -0.61428,-13.76961 -0.50704,-15.58488 0.99431,-16.83089 0.99374,-0.82473 2.02889,-1.02499 2.52789,-0.48903 1.17791,1.26514 1.95633,30.85971 0.86308,32.81324 -0.9712,1.73544 -2.37814,2.07446 -3.18579,0.76765 z M 363.6667,178.98125 c -1.46515,-1.46515 -0.6217,-4.33333 1.27431,-4.33333 2.55258,0 3.5351,1.72143 2.02266,3.5438 -1.32017,1.59071 -2.26866,1.81785 -3.29697,0.78953 z"
         style="fill:#97cfae" />
      <path
         id="path3425"
         d="m 370.83309,356.56075 c -14.79355,-1.965 -27.25139,-8.47949 -38.31296,-20.03473 -19.54809,-20.4205 -23.85382,-49.07421 -11.25178,-74.8781 5.37955,-11.01514 16.72515,-22.72117 27.4312,-28.30263 30.61162,-15.95897 67.11168,-6.69508 86.22709,21.88484 7.31708,10.93993 10.32612,20.98551 10.45926,34.91779 0.12455,13.03387 -1.16853,18.99633 -6.61457,30.5 -5.37942,11.36295 -17.53845,23.71813 -28.7713,29.23545 -12.48601,6.13285 -25.96552,8.43091 -39.16694,6.67738 z m 22.36772,-4.02558 c 12.70855,-2.6686 27.99876,-12.17913 35.45135,-22.0508 6.01057,-7.96158 7.92243,-11.525 10.91098,-20.33645 5.08777,-15.00078 3.47456,-32.83614 -4.34161,-48 -5.14844,-9.9883 -17.25574,-21.84544 -27.2215,-26.65908 -15.06813,-7.27816 -32.26303,-8.67104 -47,-3.80727 -19.54322,6.45003 -35.53088,23.14767 -41.61816,43.46635 -2.8267,9.43521 -2.38694,24.77988 1.00919,35.21451 6.57124,20.19013 24.30868,36.86356 44.39735,41.73408 7.04445,1.70793 21.3183,1.92831 28.4124,0.43866 z m -26.78312,-3.36974 c -20.43403,-4.44638 -38.59965,-22.23191 -43.89604,-42.97761 -1.9547,-7.65644 -1.95135,-22.46985 0.007,-29.9876 4.05864,-15.58215 16.48384,-30.96385 30.47161,-37.72211 10.04298,-4.85231 16.64897,-6.31145 28,-6.18468 12.49399,0.13954 22.93036,3.41904 32.68859,10.27198 16.55789,11.62815 25.31141,28.49331 25.31141,48.76676 0,16.82388 -5.17455,29.44115 -16.99273,41.43394 -14.75967,14.97773 -34.86494,20.90893 -55.58961,16.39932 z m 26.20542,-51.83327 c 14.76775,-12.20397 26.98591,-22.89243 27.15148,-23.75212 0.38591,-2.00388 -6.79517,-10.93003 -8.77456,-10.90686 -0.825,0.01 -10.95,7.86334 -22.5,17.45264 -11.55,9.58929 -21.72697,17.45466 -22.61548,17.47859 -0.88851,0.0239 -4.40718,-3.33149 -7.81926,-7.45649 -3.41209,-4.125 -6.87442,-7.5 -7.69407,-7.5 -2.1834,0 -10.37119,7.14816 -10.37119,9.05434 0,2.5281 22.75373,28.97739 24.38883,28.34995 0.76109,-0.29206 13.4665,-10.51608 28.23425,-22.72005 z m -93.67988,-67.79763 c -6.62098,-13.21674 -7.67219,-16.88661 -4.83705,-16.88661 2.72189,0 29.12167,10.43012 29.60807,11.69766 1.14489,2.98353 -0.42502,2.91463 -9.37409,-0.41139 -1.05425,-0.39182 -6.82598,5.10454 -8.55005,8.14212 -0.39046,0.68794 0.17204,2.89634 1.25,4.90757 2.34114,4.36807 2.5019,6.66404 0.4666,6.66404 -0.91993,0 -4.2081,-5.41921 -8.56348,-14.11339 z m 7.48335,-4.41486 c 0.91111,-1.39053 1.39398,-2.95313 1.07303,-3.47243 -0.74324,-1.20258 -8.32651,-3.50573 -9.07579,-2.75645 -0.93552,0.93553 3.51383,8.75713 4.98152,8.75713 0.75057,0 2.11013,-1.13771 3.02124,-2.52825 z m 141.18833,14.43995 c -3.18745,-2.50724 -5.61488,-6.92304 -5.61488,-10.21416 0,-5.50134 8.02371,-12.69754 14.15767,-12.69754 3.5066,0 8.52461,4.27695 9.33224,7.95404 0.68623,3.1244 -1.14835,7.68767 -4.06327,10.10684 -1.53001,1.2698 -2.26027,0.79994 -7.10712,-4.57283 -5.15888,-5.71868 -5.46752,-5.90073 -6.86071,-4.04692 -2.43566,3.24095 -1.75268,6.54556 2.10469,10.18353 1.95993,1.84845 3.28337,3.81409 2.94099,4.36808 -0.91198,1.47561 -1.92373,1.25193 -4.88961,-1.08104 z m 14.21548,-12.75438 c 0.44503,-3.12836 -2.49934,-6.15732 -5.98535,-6.15732 -3.60586,0 -3.67304,1.86249 -0.21542,5.97164 2.98138,3.54317 5.71151,3.62493 6.20077,0.18568 z m -29.32547,-3.1494 c -0.80565,-1.30357 -0.49875,-1.76576 9.84729,-14.83001 8.29312,-10.47197 11.64782,-13.25321 11.64782,-9.65672 0,1.76314 -18.57673,25.47881 -19.95782,25.47881 -0.50828,0 -1.20006,-0.44644 -1.53729,-0.99208 z m -110.02441,-9.53855 c -4.93926,-3.59185 -9.1179,-7.14989 -9.28585,-7.90676 -0.68996,-3.10928 1.98438,-2.25872 8.94779,2.84579 4.04667,2.9664 7.65478,5.21138 8.01803,4.98885 0.36325,-0.22253 -0.0143,-3.21545 -0.83908,-6.65093 -2.08208,-8.6729 -2.17656,-12.24632 -0.3238,-12.24632 2.2634,0 6.85022,21.77355 5.04503,23.94867 -0.70812,0.85323 -1.57867,1.55133 -1.93456,1.55133 -0.3559,0 -4.6883,-2.93878 -9.62756,-6.53063 z m 93.67337,-0.46937 c -1.65,-1.65 -3.70962,-3 -4.57693,-3 -0.8673,0 -1.57692,-0.456 -1.57692,-1.01333 0,-1.95423 14.02422,-28.98667 15.03806,-28.98667 2.04161,0 2.05814,2.8911 0.0392,6.84863 -2.21192,4.33572 -2.13895,4.504 2.42278,5.58724 7.29133,1.73142 9.57399,8.57845 5.51339,16.53789 -3.93648,7.71605 -11.38983,9.49599 -16.85958,4.02624 z m 9.62936,-1.5607 c 5.45278,-3.81928 6.93156,-12.26963 2.63929,-15.08204 -4.67768,-3.06493 -9.98179,0.86024 -11.94879,8.84242 -0.51827,2.10317 -0.10177,3.26317 1.88506,5.25 2.95728,2.95728 4.35014,3.14293 7.42444,0.98962 z m -79.78321,-0.22371 c -3.04457,-0.96729 -5,-3.59367 -5,-6.71559 0,-3.58882 1.57276,-5.2981 7.71723,-8.3871 2.95491,-1.48551 4.04216,-2.57634 3.63235,-3.64429 -1.15382,-3.0068 -3.87051,-3.49725 -7.9242,-1.43057 -4.67453,2.38322 -4.42538,2.37894 -4.42538,0.0759 0,-2.17304 5.40635,-5.11394 9.40113,-5.11394 3.85011,0 6.05318,2.85461 8.97574,11.63028 3.16565,9.50559 3.1591,9.36972 0.45187,9.36972 -1.19419,0 -2.93219,0.68863 -3.86221,1.53029 -2.07136,1.87455 -6.93439,3.33094 -8.96653,2.6853 z m 6.68555,-5.3899 c 2.61057,-2.45251 3.07183,-6.59783 0.82988,-7.45814 -1.98077,-0.7601 -7.92185,2.78873 -8.34474,4.98463 -0.41447,2.15216 1.53859,4.64782 3.6373,4.64782 0.85971,0 2.60461,-0.97844 3.87756,-2.17431 z m 48.90903,1.43556 c -0.40631,-0.40631 -3.16519,-0.74381 -6.13085,-0.75 -5.85401,-0.0122 -7.9104,-1.28782 -8.95445,-5.55453 -0.43491,-1.77735 0.0189,-3.35844 1.50678,-5.25 1.91986,-2.44071 2.76077,-2.70672 8.55652,-2.70672 6.10098,0 6.42742,-0.12075 6.42742,-2.37756 0,-3.15601 -1.6967,-4.40597 -6.51268,-4.79793 -5.74283,-0.46739 -4.90988,-2.27119 1.21217,-2.62502 4.16643,-0.2408 5.6069,0.1069 7.25,1.75 2.83972,2.83972 2.75415,6.5739 -0.47663,20.80051 -0.52084,2.2935 -1.55371,2.83581 -2.87828,1.51125 z m -1.98288,-5.60367 c 3.93832,-3.38761 2.71654,-5.65758 -3.04513,-5.65758 -3.45537,0 -4.74114,0.45768 -5.5543,1.97708 -0.84041,1.57032 -0.64191,2.39328 0.96481,4 2.62175,2.62175 4.2967,2.55165 7.63462,-0.3195 z m -32.64769,3.59242 c -0.0198,-0.4125 -0.63869,-5.25 -1.37532,-10.75 -0.73664,-5.5 -1.14388,-10.3375 -0.905,-10.75 0.56485,-0.97536 3.3055,-0.97536 3.3523,0 0.0198,0.4125 0.63869,5.25 1.37532,10.75 1.41331,10.55231 1.33335,11.5 -0.97033,11.5 -0.79254,0 -1.45718,-0.3375 -1.47697,-0.75 z m 10.70266,-0.91667 c -0.36667,-0.36666 -0.66667,-7.82466 -0.66667,-16.57332 0,-14.61055 0.14259,-15.87928 1.75,-15.57062 1.56725,0.30095 1.77869,2.0317 2.02477,16.57333 0.22248,13.14736 0.0163,16.23728 -1.08333,16.23728 -0.74696,0 -1.65811,-0.3 -2.02477,-0.66667 z m -14.22052,-27.42046 c -0.87268,-1.41202 1.0547,-3.3394 2.46672,-2.46672 1.58602,0.98021 1.32977,3.55385 -0.35385,3.55385 -0.79254,0 -1.74333,-0.48921 -2.11287,-1.08713 z"
         style="fill:#7ac197" />
      <path
         id="path3423"
         d="m 363.21556,354.62927 c -39.18961,-10.26764 -59.69333,-53.67259 -42.74176,-90.48135 6.69986,-14.54814 16.64061,-24.68478 31.02623,-31.63767 37.65924,-18.20152 81.64327,2.3994 92.10113,43.13767 2.17307,8.4651 2.13357,23.46799 -0.0842,32 -5.87654,22.60735 -24.54518,41.2527 -47.07308,47.01437 -10.04232,2.56839 -23.34968,2.55517 -33.22829,-0.033 z m 31.78447,-2.15196 c 16.62968,-3.90718 33.12811,-17.17557 40.86342,-32.86324 12.54914,-25.45042 7.95882,-53.17118 -12.11308,-73.15043 -11.40363,-11.35099 -27.24151,-17.81572 -43.64655,-17.81572 -17.15997,0 -32.44658,6.37505 -44.72228,18.65074 -25.2058,25.20581 -24.10275,66.10114 2.43891,90.42175 7.46718,6.84232 19.37766,13.11145 28.17958,14.83244 3.025,0.59146 6.4,1.2787 7.5,1.52719 2.84425,0.64254 16.17254,-0.35103 21.5,-1.60273 z m -25,-2.83883 c -7.80592,-1.34296 -16.26807,-4.84129 -23.28855,-9.6277 -17.25239,-11.76231 -26.52794,-30.46189 -25.47719,-51.36217 1.2408,-24.68042 16.02997,-44.67972 39.33358,-53.19053 4.32941,-1.58115 8.9795,-2.28286 17.21107,-2.59718 10.0403,-0.38337 12.18688,-0.14758 19.54704,2.1472 40.85719,12.73862 54.93776,62.41319 27.02218,95.33105 -4.54051,5.35414 -14.97153,12.90633 -21.64815,15.67355 -9.33089,3.86731 -22.68778,5.34832 -32.69998,3.62578 z m 21.63936,-51.04388 c 14.77335,-12.12933 27.43829,-22.86948 28.14431,-23.86701 1.11997,-1.58239 0.69851,-2.53201 -3.30495,-7.44667 -2.52373,-3.09815 -4.91503,-5.633 -5.314,-5.633 -0.39897,0 -10.56073,8.1 -22.58169,18 -12.02095,9.9 -22.22373,18 -22.67284,18 -0.44911,0 -3.6084,-3.2625 -7.02064,-7.25 -3.41225,-3.9875 -6.78206,-7.59516 -7.48846,-8.01703 -1.61961,-0.96724 -11.94882,7.33636 -11.78551,9.4743 0.1512,1.9793 22.51222,28.79273 24.01166,28.79273 0.63332,0 13.23877,-9.924 28.01212,-22.05332 z m -92.49423,-69.54584 c -4.88318,-9.68759 -7.02018,-14.92579 -6.35895,-15.58702 0.66124,-0.66124 5.82142,0.7668 15.35487,4.24931 15.33268,5.60094 16.82456,6.37126 15.2972,7.89862 -0.61566,0.61566 -2.65177,0.35401 -5.65824,-0.7271 l -4.69649,-1.68885 -2.90046,2.77881 c -5.13723,4.92178 -5.66559,6.80924 -3.23811,11.56748 1.9431,3.80879 2.03603,6.11432 0.24603,6.10388 -0.38004,-0.002 -4.00067,-6.57002 -8.04585,-14.59513 z m 7.02613,-3.05583 c 3.16939,-2.86826 2.26631,-5.00791 -2.8494,-6.75101 -5.69195,-1.93944 -5.32186,-1.94208 -5.32186,0.038 0,2.18403 3.88185,8.36803 5.25282,8.36803 0.59933,0 1.91263,-0.74474 2.91844,-1.65499 z m 141.18161,13.1896 c -3.11367,-2.18091 -5.6071,-8.10061 -4.85479,-11.52587 0.79046,-3.59894 7.25102,-9.57509 11.31654,-10.46802 3.51243,-0.77146 8.5566,1.41587 10.15574,4.40389 2.39926,4.48306 -0.0669,13.05539 -3.75595,13.05539 -0.85556,0 -3.66648,-2.35682 -6.24649,-5.23739 -4.12091,-4.60097 -4.89003,-5.07215 -6.32942,-3.87755 -2.70868,2.248 -2.05539,7.34135 1.3615,10.61494 1.65,1.5808 3,3.23999 3,3.68709 0,1.28184 -2.35822,0.95073 -4.64713,-0.65248 z m 14.64713,-13.60035 c 0,-1.78137 -0.81899,-3.3945 -2.22251,-4.37756 -2.71996,-1.90513 -3.86432,-1.94491 -6.2281,-0.21647 -1.72705,1.26285 -1.61513,1.58124 1.93859,5.51478 2.97406,3.29194 4.06118,3.93412 5.14174,3.03733 0.75365,-0.62548 1.37028,-2.40661 1.37028,-3.95808 z m -28.98381,-2.60093 c 0.0194,-2.19208 17.51223,-24.69301 19.55752,-25.15665 0.78446,-0.17783 1.4186,0.27217 1.40921,1 -0.0196,1.5161 -18.38459,25.12387 -19.95047,25.64584 -0.56785,0.18928 -1.02516,-0.48085 -1.01626,-1.48919 z m -111.36369,-9.85978 c -4.75888,-3.58954 -8.6525,-6.96454 -8.6525,-7.5 0,-2.1587 3.37148,-0.71536 9.40531,4.02645 3.49931,2.75 6.9209,5 7.60354,5 1.31854,0 1.23317,-0.74585 -1.33118,-11.62984 -1.3222,-5.61189 -0.84368,-9.86951 0.91192,-8.1139 1.07705,1.07705 5.50605,22.05213 4.95799,23.48033 -0.97275,2.53497 -4.42458,1.12613 -12.89508,-5.26304 z m 95.00028,0.52645 c -1.87924,-1.65 -4.1449,-3 -5.0348,-3 -0.88989,0 -1.61798,-0.231 -1.61798,-0.51333 0,-1.37626 14.12305,-28.48667 14.84001,-28.48667 1.9232,0 1.95724,1.4771 0.11714,5.08398 -2.63388,5.16285 -2.52369,5.58715 1.65458,6.371 7.88605,1.47943 10.35203,7.85699 6.28586,16.25657 -3.65765,7.55569 -10.47414,9.35517 -16.24481,4.28845 z m 10.84937,-2.59682 c 1.32366,-1.42825 2.92831,-4.17745 3.56588,-6.10932 1.00558,-3.04692 0.8991,-3.86252 -0.8033,-6.15318 -3.83874,-5.16523 -9.91555,-3.48047 -12.90275,3.5772 -1.91325,4.52034 -1.70153,6.88787 0.82658,9.24316 2.9722,2.76903 6.42183,2.5624 9.31359,-0.55786 z m -84.94545,-1.62569 c -0.85618,-1.22238 -1.5567,-3.26886 -1.5567,-4.54775 0,-2.41075 4.35606,-7.22974 6.53524,-7.22974 0.68375,0 2.30163,-0.85708 3.59529,-1.90461 2.31801,-1.87701 2.32461,-1.93498 0.45579,-4 -2.28226,-2.52188 -2.81332,-2.55604 -7.22095,-0.46448 -1.89029,0.897 -3.75829,1.30826 -4.15113,0.91392 -1.14167,-1.14606 3.60469,-4.42024 7.45478,-5.14252 4.82417,-0.90502 7.37956,1.93781 10.63748,11.83399 2.36318,7.17833 2.25738,9.84826 -0.32697,8.25105 -0.56126,-0.34688 -2.39579,0.52656 -4.07673,1.94098 -3.94965,3.32341 -9.15074,3.48347 -11.3461,0.34916 z m 10.22079,-2.33419 c 3.07176,-2.15155 3.20056,-8.4433 0.17285,-8.4433 -1.12731,0 -3.37731,0.68656 -5,1.52568 -2.20431,1.13989 -2.95034,2.23563 -2.95034,4.33333 0,1.54421 0.3,3.10766 0.66667,3.47432 1.17232,1.17232 4.81786,0.71602 7.11082,-0.89003 z m 39.22251,-0.15273 c -3.1397,-1.15445 -5,-3.69306 -5,-6.82311 0,-4.44246 2.20511,-5.88438 9.89062,-6.46746 5.03748,-0.38218 6.66337,-0.88377 6.89987,-2.12862 0.50648,-2.66594 -2.60015,-4.87138 -6.86192,-4.87138 -2.8254,0 -3.92857,-0.42121 -3.92857,-1.5 0,-2.58554 8.33976,-1.97198 11.62677,0.85538 l 2.73829,2.35538 -1.25839,8.45835 c -1.50859,10.14005 -2.12402,11.42716 -4.78338,10.00391 -1.19481,-0.63945 -2.48241,-0.68465 -3.37717,-0.11856 -1.5877,1.00448 -3.63527,1.08579 -5.94612,0.23611 z m 7.77749,-3.84727 c 2.56956,-1.79979 2.95825,-5.94699 0.64072,-6.83631 -4.0941,-1.57105 -10.41821,0.78316 -10.41821,3.87828 0,3.99773 5.79157,5.74987 9.77749,2.95803 z m -32.16378,2.74068 c -1.00523,-1.62649 -3.03571,-21.09531 -2.27904,-21.85199 1.54213,-1.54212 2.65008,1.6608 3.79377,10.96716 0.83998,6.83507 0.88478,10.08763 0.14907,10.82334 -0.68453,0.68453 -1.26547,0.706 -1.6638,0.0615 z m 9.90771,-9.38303 c -0.87356,-12.07518 -0.34856,-23.03355 1.12684,-23.52067 0.79328,-0.26192 1.36046,3.11415 1.83462,10.9203 0.82282,13.54608 0.42908,21.00761 -1.13574,21.5222 -0.78468,0.25805 -1.36773,-2.59117 -1.82572,-8.92183 z m -13.89642,-18.5987 c -0.27117,-0.43876 -0.0915,-1.44749 0.39934,-2.24164 0.67454,-1.09142 1.17421,-1.16206 2.04689,-0.28938 0.63498,0.63498 0.85216,1.64371 0.48262,2.24164 -0.78966,1.27769 -2.23008,1.42001 -2.92885,0.28938 z"
         style="fill:#66b989" />
      <path
         id="path3421"
         d="m 366.07204,355.09492 c -24.29585,-5.2689 -43.94229,-24.72851 -49.68955,-49.21702 -2.4169,-10.29818 -1.47124,-26.51936 2.11091,-36.20897 5.23091,-14.14944 15.9822,-27.42136 27.84532,-34.37361 43.85129,-25.69857 98.66131,5.52188 98.66131,56.19867 0,25.25944 -13.51785,46.82197 -36.5,58.22174 -13.3161,6.60514 -28.12012,8.48206 -42.42799,5.37919 z m 26.72015,-2.01391 c 12.51744,-2.54465 21.34259,-7.45241 31.24693,-17.37675 5.38081,-5.39168 9.73577,-10.84432 11.77456,-14.74239 6.68186,-12.77538 8.80106,-29.02862 5.69592,-43.68485 -4.63035,-21.8552 -23.35943,-41.25676 -45.50957,-47.14362 -7.16137,-1.90329 -24.83863,-1.90329 -32,0 -10.44344,2.77556 -19.80772,8.25829 -28.02059,16.40588 -12.95406,12.85111 -18.97941,27.15573 -18.97941,45.0585 0,29.56442 20.71473,55.21537 49.58868,61.40543 9.1471,1.96097 16.82773,1.98378 26.20348,0.0778 z m -28.1841,-4.95511 c -14.44184,-3.9653 -29.33998,-15.73025 -36.02213,-28.4464 -9.49877,-18.07621 -9.81919,-36.90552 -0.93647,-55.03158 7.01403,-14.31283 22.71801,-26.75335 38.45365,-30.46256 19.65915,-4.63407 40.9229,1.3142 54.97515,15.37861 10.71181,10.72108 16.28516,22.71779 17.47476,37.61469 2.18851,27.40569 -16.70444,53.83684 -43.59836,60.99392 -6.77914,1.80408 -23.70084,1.77805 -30.3466,-0.0467 z m 28.39194,-50.30232 c 16.27686,-13.47485 27.5,-23.45937 27.5,-24.46501 0,-1.93675 -6.28942,-10.31974 -8.3909,-11.184 -1.8796,-0.773 -2.76049,-0.12849 -25.08228,18.3516 -10.71024,8.86696 -20.21221,16.12175 -21.11548,16.12175 -0.90326,0 -4.434,-3.375 -7.84608,-7.5 -3.41209,-4.125 -6.69355,-7.5 -7.29215,-7.5 -1.87897,0 -11.77311,8.17038 -11.77311,9.722 0,2.27529 22.93014,29.28215 24.83366,29.24881 0.91649,-0.0161 14.04134,-10.27387 29.16634,-22.79515 z M 299.50718,229.6622 c -6.83751,-13.64499 -7.55564,-16.01428 -4.85388,-16.01428 2.69459,0 29.34673,10.24087 29.34673,11.27625 0,0.90465 -2.00323,0.70096 -8.32397,-0.84637 -2.38986,-0.58504 -3.4275,-0.10199 -6.75,3.14235 -4.17925,4.08093 -4.7216,6.41209 -2.42603,10.42777 1.68599,2.94933 1.89399,5 0.50715,5 -0.54606,0 -3.92106,-5.84357 -7.5,-12.98572 z m 6.95821,-3.97812 c 2.2566,-2.35539 2.59905,-3.25362 1.66809,-4.37536 -1.28297,-1.54588 -9.86393,-4.26366 -10.72936,-3.39822 -0.69664,0.69663 4.37701,10.73742 5.42566,10.73742 0.43784,0 2.07386,-1.33373 3.63561,-2.96384 z m 139.63823,11.42904 c -5.36583,-6.11134 -3.62305,-14.07674 3.93505,-17.98518 4.85237,-2.50926 9.41274,-1.92073 12.37247,1.5967 3.3018,3.92398 3.32647,7.99002 0.0705,11.61752 l -2.51846,2.80576 -4.811,-5.25 c -2.64605,-2.8875 -5.50816,-5.25 -6.36025,-5.25 -0.85209,0 -2.08931,1.30379 -2.74936,2.89731 -0.98871,2.38694 -0.91646,3.44582 0.41013,6.01117 0.88564,1.71262 2.49609,3.66708 3.57879,4.34324 2.29533,1.43346 2.56905,2.74828 0.57213,2.74828 -0.76802,0 -2.79302,-1.59066 -4.5,-3.5348 z m 16.0597,-8.92424 c 0.90021,-1.97573 0.78627,-2.969 -0.57971,-5.05374 -2.06307,-3.14865 -3.79713,-3.90142 -7.08582,-3.07602 -3.25167,0.81612 -3.14997,1.97751 0.58627,6.6949 3.56583,4.50222 5.5028,4.89482 7.07926,1.43486 z m -29.16329,-5.55191 c 0,-1.78647 19.09454,-25.04866 20.06741,-24.44739 1.32856,0.8211 0.27667,2.45055 -9.49499,14.70834 -7.89388,9.90227 -10.57242,12.36967 -10.57242,9.73905 z m -111.31144,-9.70583 c -5.96941,-4.44438 -8.48359,-6.88819 -7.79498,-7.5768 0.68861,-0.68861 3.4763,0.83497 8.64296,4.72371 4.19457,3.15709 7.89887,5.4678 8.23176,5.1349 0.3329,-0.3329 -0.21738,-4.65761 -1.22285,-9.61049 -1.65318,-8.14351 -1.62932,-11.37174 0.0715,-9.67095 0.33931,0.33931 1.63442,5.3292 2.87801,11.08865 2.22574,10.30803 2.04022,12.77192 -0.94493,12.54954 -0.5775,-0.043 -5.01515,-3.03037 -9.86144,-6.63856 z m 97.18001,2.24735 c -1.44728,-0.80861 -2.89566,-2.15878 -3.21861,-3.00038 -0.32296,-0.84161 -1.50131,-1.53019 -2.61858,-1.53019 -1.14752,0 -2.03138,-0.65887 -2.03138,-1.51428 0,-2.25949 12.85568,-27.48572 14.00716,-27.48572 1.46235,0 1.20934,2.68065 -0.57951,6.13992 -1.97627,3.82167 -1.23957,5.86008 2.11789,5.86008 3.28337,0 8.46226,5.01956 8.4325,8.17308 -0.0293,3.10038 -3.2148,9.89988 -5.65243,12.06504 -2.76937,2.45983 -7.3535,3.02641 -10.45704,1.29245 z m 9.46447,-4.78057 c 4.84216,-6.4633 4.66656,-11.66461 -0.4837,-14.32791 -4.03308,-2.08558 -7.23023,-0.55598 -9.93997,4.75555 -2.59455,5.08575 -2.4771,9.3113 0.31314,11.26566 3.69079,2.58513 7.36642,1.96954 10.11053,-1.6933 z m -84.6961,-0.25592 c -4.30268,-4.30268 -2.25619,-9.44241 4.99776,-12.55182 3.60071,-1.54345 4.44149,-2.36396 4.18556,-4.08471 -0.17614,-1.18431 -1.09631,-2.63973 -2.04482,-3.23426 -1.68116,-1.05376 -2.38816,-0.90801 -9.02544,1.86069 -3.07297,1.28186 -1.91402,-1.3478 1.33431,-3.02758 3.76451,-1.94671 8.33584,-2.18252 10.32391,-0.53257 1.25282,1.03975 6.59178,15.0757 6.59178,17.32958 0,0.41062 -1.125,0.74659 -2.5,0.74659 -1.375,0 -2.5,0.43844 -2.5,0.97432 0,1.28435 -5.36523,4.02568 -7.87891,4.02568 -1.08803,0 -2.6559,-0.67766 -3.48415,-1.50592 z m 9.54676,-2.83765 c 4.09978,-3.11668 2.52761,-10.65174 -1.92743,-9.23777 -3.3055,1.04913 -7.25627,4.56305 -7.25627,6.45392 0,3.84245 5.57012,5.53092 9.1837,2.78385 z m 48.34746,-0.60602 c -0.32278,-0.52227 -2.7683,-0.69122 -5.43448,-0.37546 -4.07234,0.48231 -5.18737,0.23436 -6.97214,-1.55041 -5.27023,-5.27023 -0.26657,-12.04249 7.92925,-10.73193 4.9054,0.78441 6.94621,-0.0609 6.94621,-2.87715 0,-3.08634 -2.36548,-4.81538 -6.79846,-4.96932 -2.03585,-0.0707 -3.60686,-0.56 -3.49115,-1.08734 0.61624,-2.80836 10.56641,-0.67864 12.34356,2.64201 0.74749,1.39669 0.57607,4.45747 -0.61157,10.91991 -1.54241,8.39294 -2.48753,10.33327 -3.91122,8.02969 z m -0.21973,-5.25423 c 2.65634,-3.57306 0.98313,-5.79618 -4.36245,-5.79618 -4.06147,0 -6.94898,2.02422 -6.94898,4.87143 0,4.88423 7.88837,5.52914 11.31143,0.92475 z m -33.64432,3.45382 c -0.24802,-0.4125 -0.99372,-4.95835 -1.65713,-10.10189 -0.85344,-6.6169 -0.89464,-9.66345 -0.14087,-10.41722 0.75377,-0.75377 1.20226,-0.65086 1.53354,0.35189 0.49911,1.51072 2.59735,17.32518 2.59735,19.57622 0,1.43391 -1.58473,1.83537 -2.33289,0.591 z m 9.83817,-12.45117 c -0.79935,-14.00978 -0.53362,-17.97111 1.24472,-18.55504 0.94676,-0.31088 1.29717,2.5209 1.44444,11.67288 0.10695,6.64583 0.21945,13.50833 0.25,15.25 0.0306,1.74166 -0.46036,3.33864 -1.09093,3.54883 -0.79644,0.26548 -1.36074,-3.37292 -1.84823,-11.91667 z m -13.50528,-15.29883 c 0,-0.91667 0.48375,-1.50542 1.075,-1.30833 0.59125,0.19708 1.075,0.78583 1.075,1.30833 0,0.5225 -0.48375,1.11125 -1.075,1.30833 -0.59125,0.19709 -1.075,-0.39166 -1.075,-1.30833 z"
         style="fill:#4cad75" />
      <path
         id="path3419"
         d="m 368.00003,348.09289 c -9.1289,-1.96066 -21.494,-8.36526 -27.769,-14.38316 -11.21796,-10.75835 -17.04608,-23.61499 -17.93397,-39.56181 -0.95446,-17.14221 4.77716,-31.90651 17.08114,-44 11.50653,-11.30969 24.2847,-16.5 40.62183,-16.5 16.35474,0 29.14122,5.19755 40.59164,16.5 28.11388,27.7506 20.88116,75.26673 -14.09164,92.57644 -13.16578,6.51637 -25.28632,8.20649 -38.5,5.36853 z m 25.47398,-49.80557 c 15.22052,-12.57334 27.91553,-23.49088 28.21113,-24.2612 0.68934,-1.7964 -8.55688,-13.3782 -10.68036,-13.3782 -0.46881,0 -10.67417,8.0934 -22.67857,17.98534 -12.0044,9.89193 -22.12485,17.99193 -22.48989,18 -0.36504,0.008 -3.66637,-3.58534 -7.33629,-7.98534 -3.66992,-4.4 -7.2045,-8 -7.85462,-8 -1.39765,0 -10.77769,7.56449 -11.97516,9.65733 -1.06386,1.85931 -0.25618,3.03458 12.81586,18.64864 7.49253,8.94954 11.26215,12.71384 12.51767,12.5 0.9881,-0.16828 14.24971,-10.59324 29.47023,-23.16657 z M 301.1785,230.85697 c -4.74292,-9.69916 -5.27833,-12.05165 -0.97498,-4.28392 0.93692,1.69118 2.19979,3.07487 2.80637,3.07487 1.21689,0 6.99014,-5.9776 6.99014,-7.23756 0,-0.43551 -1.4625,-1.7331 -3.25,-2.88353 -3.68431,-2.37122 -3.23472,-2.2754 7.52397,1.6036 4.27569,1.54158 7.56116,3.01569 7.30105,3.2758 -0.26011,0.26011 -1.91305,-0.0291 -3.6732,-0.64269 -4.79381,-1.67113 -5.40763,-1.47513 -9.81585,3.13438 -4.46918,4.67325 -4.85756,6.35722 -2.51223,10.89259 0.86555,1.6738 1.40898,3.20802 1.20761,3.40939 -0.20137,0.20137 -2.72266,-4.45295 -5.60288,-10.34293 z m 145.69397,6.04095 c -1.24387,-1.58606 -1.2085,-1.62143 0.37756,-0.37756 1.66575,1.30637 2.19548,2.12756 1.37244,2.12756 -0.20765,0 -0.99515,-0.7875 -1.75,-1.75 z m 11.62756,-4.25 c -0.33992,-0.55 0.058,-1 0.88428,-1 0.82627,0 2.20283,-1.00013 3.05902,-2.22251 0.85618,-1.22238 1.5567,-1.7725 1.5567,-1.2225 0,1.43038 -2.94751,5.44501 -3.99769,5.44501 -0.48635,0 -1.16239,-0.45 -1.50231,-1 z m -15.5,-2.53212 c 0,-3.97368 6.50558,-11.50109 9.88486,-11.43747 1.40302,0.0264 1.38531,0.16427 -0.13486,1.04969 -0.9625,0.5606 -1.75,1.67192 -1.75,2.46959 0,0.79767 -0.92296,1.45031 -2.05103,1.45031 -1.39881,0 -2.51606,1.11298 -3.51342,3.5 -1.29565,3.10094 -2.43555,4.48998 -2.43555,2.96788 z m -9,-8.00759 c 0,-1.09575 18.24796,-23.54566 18.73927,-23.05435 0.48382,0.48382 -17.47,23.59406 -18.32969,23.59406 -0.22527,0 -0.40958,-0.24287 -0.40958,-0.53971 z m -139.71466,-4.73338 c -1.50804,-3.30979 -0.63717,-3.90888 3.21466,-2.21142 2.57331,1.13403 2.69041,1.33362 0.82332,1.40329 -1.20492,0.045 -2.32207,0.83623 -2.50237,1.77242 -0.2478,1.28671 -0.61507,1.05608 -1.53561,-0.96429 z m 27.98622,-4.99814 c -4.52565,-3.35787 -8.02029,-6.31337 -7.76589,-6.56778 0.25441,-0.25441 3.78248,2.08029 7.84016,5.18823 7.38136,5.65366 9.65417,6.70147 9.65417,4.45078 0,-0.88114 0.29571,-0.90429 1.11287,-0.0871 1.27101,1.27101 0.3581,3.32818 -1.42189,3.20412 -0.65504,-0.0456 -4.89378,-2.83035 -9.41942,-6.18822 z m 102.45875,1.78864 c 5.94944,-2.58639 9.68879,-11.55592 6.79872,-16.30805 l -1.64773,-2.70936 2.05935,2.36078 c 2.58739,2.96612 2.60819,6.14309 0.0727,11.11298 -2.23541,4.38175 -5.47032,7.04531 -8.4859,6.9871 -1.50048,-0.029 -1.18783,-0.40417 1.20282,-1.44345 z m -93.57242,-5.51741 c 0,-1.375 0.22698,-1.9375 0.50439,-1.25 0.27741,0.6875 0.27741,1.8125 0,2.5 -0.27741,0.6875 -0.50439,0.125 -0.50439,-1.25 z m 12.41354,0.42857 c -1.81108,-1.81108 -1.99905,-4.27406 -0.49061,-6.42857 0.82385,-1.17671 0.91492,-1.01865 0.42258,0.73335 -0.451,1.60491 0.0806,2.94151 1.88904,4.75 1.59613,1.59613 2.01075,2.51665 1.13353,2.51665 -0.76071,0 -2.09026,-0.70714 -2.95454,-1.57143 z m 68.48053,-0.67857 c 0.0792,-1.90566 12.84174,-26.46683 12.86065,-24.75 0.009,0.825 -0.62659,2.625 -1.41261,4 -0.78602,1.375 -1.44508,3.7375 -1.46456,5.25 -0.0195,1.5125 -0.46647,2.75 -0.99329,2.75 -1.54614,0 -6.04215,8.43659 -6.04215,11.33786 0,1.69968 -0.5423,2.66214 -1.5,2.66214 -0.825,0 -1.47662,-0.5625 -1.44804,-1.25 z m -82.74509,-7.25147 c -0.56617,-2.47419 -0.69935,-4.49853 -0.29595,-4.49853 0.76443,0 2.32963,7.99278 1.69038,8.63203 -0.20076,0.20076 -0.82825,-1.65931 -1.39443,-4.1335 z m 26.69313,1.12391 c 0,-1.85765 -0.62854,-3.8992 -1.39677,-4.53676 -0.76822,-0.63757 -1.17237,-2.01728 -0.89812,-3.06603 0.31234,-1.19437 -0.4565,-2.86195 -2.05778,-4.46323 -2.68031,-2.68031 -2.25971,-3.45591 0.70034,-1.29147 1.52737,1.11684 6.65233,13.27419 6.65233,15.78054 0,0.52498 -0.675,0.95451 -1.5,0.95451 -1.03726,0 -1.5,-1.04195 -1.5,-3.37756 z m 45.5,2.37756 c -0.39915,-0.64585 -0.22494,-1.67505 0.38713,-2.28713 0.61208,-0.61208 1.11287,-2.3517 1.11287,-3.86582 0,-1.51412 0.51383,-3.88068 1.14185,-5.25903 0.92129,-2.02201 0.82407,-2.99109 -0.50332,-5.01695 -1.3459,-2.05409 -1.37863,-2.40857 -0.17992,-1.94858 2.33225,0.89497 2.70991,3.7325 1.47068,11.04996 -1.21151,7.15379 -2.21349,9.29476 -3.42929,7.32755 z m -34.47941,-8.35493 c -0.66095,-4.65626 -1.02382,-9.29374 -0.80637,-10.3055 0.21746,-1.01176 0.9705,2.58565 1.67343,7.99425 0.70292,5.4086 1.06579,10.04607 0.80636,10.3055 -0.25942,0.25942 -1.01246,-3.33799 -1.67342,-7.99425 z m 21.64608,7.68826 c -1.2519,-1.2519 -0.66982,-6.08583 0.88857,-7.37917 1.38666,-1.15083 1.4198,-0.99348 0.30572,1.45164 -0.97753,2.14546 -0.98771,3.16159 -0.0468,4.66829 1.13128,1.81147 0.30806,2.71483 -1.14753,1.25924 z m -10.01496,-7.08333 c -0.35062,-3.7125 -0.58169,-10.35 -0.51348,-14.75 l 0.124,-8 0.78895,6 c 0.76794,5.84021 1.18351,23.5 0.553,23.5 -0.17323,0 -0.60184,-3.0375 -0.95247,-6.75 z"
         style="fill:#089348" />
    </g>
  </g>
</svg>
